HIERARCHY
ROOT CG
{
	OFFSET 0.000000 0.000000 27.772259
	CHANNELS 6 Xposition Yposition Zposition Xrotation Yrotation Zrotation
	JOINT Pelvis
	{
		OFFSET 0.000000 0.000000 0.000000
		CHANNELS 3 Xrotation Yrotation Zrotation
		JOINT Spine
		{
			OFFSET -0.000017 -10.490843 -0.495483
			CHANNELS 3 Xrotation Yrotation Zrotation
			JOINT Spine1
			{
				OFFSET -0.000010 -22.678980 0.018061
				CHANNELS 3 Xrotation Yrotation Zrotation
				JOINT Spine2
				{
					OFFSET -0.000010 -22.678967 0.018061
					CHANNELS 3 Xrotation Yrotation Zrotation
					JOINT Spine3
					{
						OFFSET -0.000010 -22.678982 0.018059
						CHANNELS 3 Xrotation Yrotation Zrotation
						JOINT Neck
						{
							OFFSET -0.000012 -22.678986 -1.289251
							CHANNELS 3 Xrotation Yrotation Zrotation
							JOINT Neck1
							{
								OFFSET -0.000007 -16.255905 0.012947
								CHANNELS 3 Xrotation Yrotation Zrotation
								JOINT Head
								{
									OFFSET -0.000005 -10.784607 -0.287502
									CHANNELS 3 Xrotation Yrotation Zrotation
									JOINT Jaw01
									{
										OFFSET 0.000031 7.782959 5.073944
										CHANNELS 3 Xrotation Yrotation Zrotation
										JOINT Jaw02
										{
											OFFSET 0.000004 -34.927139 -18.883980
											CHANNELS 3 Xrotation Yrotation Zrotation
											End Site
											{
												OFFSET -0.000170 8.372803 -38.812450
											}
										}
									}
									JOINT Nose
									{
										OFFSET -0.000002 -25.700912 7.222265
										CHANNELS 3 Xrotation Yrotation Zrotation
										End Site
										{
											OFFSET -0.000090 0.641281 -21.715439
										}
									}
									JOINT L_EyeSocket
									{
										OFFSET 7.352326 -19.832718 14.164183
										CHANNELS 3 Xrotation Yrotation Zrotation
										JOINT L_Eye
										{
											OFFSET -0.000868 -0.001053 0.016003
											CHANNELS 3 Xrotation Yrotation Zrotation
											End Site
											{
												OFFSET -0.001505 -0.001846 0.027969
											}
										}
										JOINT L_Eyelid_Top
										{
											OFFSET -0.001004 -0.002625 0.032516
											CHANNELS 3 Xrotation Yrotation Zrotation
											End Site
											{
												OFFSET -0.013218 0.005753 0.024086
											}
										}
										JOINT L_Eyelid_Bottom
										{
											OFFSET -0.001194 -0.002777 0.035381
											CHANNELS 3 Xrotation Yrotation Zrotation
											End Site
											{
												OFFSET -0.010032 0.008636 -0.024754
											}
										}
									}
									JOINT R_EyeSocket
									{
										OFFSET -7.352252 -19.832748 14.164206
										CHANNELS 3 Xrotation Yrotation Zrotation
										JOINT R_Eye
										{
											OFFSET 0.000875 -0.001068 0.015991
											CHANNELS 3 Xrotation Yrotation Zrotation
											End Site
											{
												OFFSET 0.001505 -0.001846 0.027962
											}
										}
										JOINT R_Eyelid_Top
										{
											OFFSET 0.001021 -0.002625 0.032516
											CHANNELS 3 Xrotation Yrotation Zrotation
											End Site
											{
												OFFSET 0.013214 0.005753 0.024078
											}
										}
										JOINT R_Eyelid_Bottom
										{
											OFFSET 0.001170 -0.002762 0.035366
											CHANNELS 3 Xrotation Yrotation Zrotation
											End Site
											{
												OFFSET 0.010029 0.008636 -0.024746
											}
										}
									}
								}
								JOINT Neck_Fat
								{
									OFFSET 0.000044 -9.595100 -17.491512
									CHANNELS 3 Xrotation Yrotation Zrotation
									End Site
									{
										OFFSET -0.000036 15.369423 -0.000007
									}
								}
							}
						}
						JOINT L_Clavicle
						{
							OFFSET 4.567107 -11.666092 -3.750029
							CHANNELS 3 Xrotation Yrotation Zrotation
							JOINT L_UpperArm
							{
								OFFSET 20.725666 -0.000053 -0.000032
								CHANNELS 3 Xrotation Yrotation Zrotation
								JOINT L_Forearm
								{
									OFFSET 5.265112 -0.585754 -20.155697
									CHANNELS 3 Xrotation Yrotation Zrotation
									JOINT L_Hand
									{
										OFFSET 2.653017 -10.877708 -16.383667
										CHANNELS 3 Xrotation Yrotation Zrotation
										JOINT L_Finger0
										{
											OFFSET -4.206146 -4.328911 -5.034346
											CHANNELS 3 Xrotation Yrotation Zrotation
											JOINT L_Finger01
											{
												OFFSET 0.084272 -1.788536 -4.181065
												CHANNELS 3 Xrotation Yrotation Zrotation
												End Site
												{
													OFFSET 3.261885 3.094673 -0.685818
												}
											}
										}
										JOINT L_Finger1
										{
											OFFSET -1.039112 -6.775742 -3.499998
											CHANNELS 3 Xrotation Yrotation Zrotation
											JOINT L_Finger11
											{
												OFFSET 1.320335 -3.040672 -6.425793
												CHANNELS 3 Xrotation Yrotation Zrotation
												End Site
												{
													OFFSET -1.244579 6.832077 -2.013330
												}
											}
										}
										JOINT L_Finger2
										{
											OFFSET 2.531296 -5.656487 -3.286415
											CHANNELS 3 Xrotation Yrotation Zrotation
											JOINT L_Finger21
											{
												OFFSET 1.991665 -2.402016 -5.957748
												CHANNELS 3 Xrotation Yrotation Zrotation
												End Site
												{
													OFFSET -2.793068 5.800873 -1.944178
												}
											}
										}
										JOINT L_Finger3
										{
											OFFSET 5.474075 -3.302338 -2.655975
											CHANNELS 3 Xrotation Yrotation Zrotation
											JOINT L_Finger31
											{
												OFFSET 2.026943 -1.267532 -5.961166
												CHANNELS 3 Xrotation Yrotation Zrotation
												End Site
												{
													OFFSET -4.375172 4.343658 -1.800320
												}
											}
										}
										JOINT L_Finger4
										{
											OFFSET 4.825745 1.085899 -2.321970
											CHANNELS 3 Xrotation Yrotation Zrotation
											JOINT L_Finger41
											{
												OFFSET 3.358261 -1.829651 -3.744434
												CHANNELS 3 Xrotation Yrotation Zrotation
												End Site
												{
													OFFSET -3.843296 2.955200 -2.267633
												}
											}
										}
									}
								}
							}
						}
						JOINT R_Clavicle
						{
							OFFSET -4.567111 -11.666092 -3.750036
							CHANNELS 3 Xrotation Yrotation Zrotation
							JOINT R_UpperArm
							{
								OFFSET -20.725670 -0.000031 0.000038
								CHANNELS 3 Xrotation Yrotation Zrotation
								JOINT R_Forearm
								{
									OFFSET -5.265285 -0.585762 -20.155655
									CHANNELS 3 Xrotation Yrotation Zrotation
									JOINT R_Hand
									{
										OFFSET -2.653147 -10.877739 -16.383663
										CHANNELS 3 Xrotation Yrotation Zrotation
										JOINT R_Finger0
										{
											OFFSET 4.206116 -4.328888 -5.034388
											CHANNELS 3 Xrotation Yrotation Zrotation
											JOINT R_Finger01
											{
												OFFSET -0.084324 -1.788544 -4.181051
												CHANNELS 3 Xrotation Yrotation Zrotation
												End Site
												{
													OFFSET -3.261890 3.094666 -0.685791
												}
											}
										}
										JOINT R_Finger1
										{
											OFFSET 1.039101 -6.775711 -3.499994
											CHANNELS 3 Xrotation Yrotation Zrotation
											JOINT R_Finger11
											{
												OFFSET -1.320374 -3.040672 -6.425779
												CHANNELS 3 Xrotation Yrotation Zrotation
												End Site
												{
													OFFSET 1.244556 6.832077 -2.013342
												}
											}
										}
										JOINT R_Finger2
										{
											OFFSET -2.531307 -5.656464 -3.286409
											CHANNELS 3 Xrotation Yrotation Zrotation
											JOINT R_Finger21
											{
												OFFSET -1.991707 -2.402016 -5.957708
												CHANNELS 3 Xrotation Yrotation Zrotation
												End Site
												{
													OFFSET 2.793037 5.800858 -1.944197
												}
											}
										}
										JOINT R_Finger3
										{
											OFFSET -5.474091 -3.302330 -2.655947
											CHANNELS 3 Xrotation Yrotation Zrotation
											JOINT R_Finger31
											{
												OFFSET -2.026993 -1.267532 -5.961157
												CHANNELS 3 Xrotation Yrotation Zrotation
												End Site
												{
													OFFSET 4.375156 4.343674 -1.800358
												}
											}
										}
										JOINT R_Finger4
										{
											OFFSET -4.825756 1.085922 -2.321926
											CHANNELS 3 Xrotation Yrotation Zrotation
											JOINT R_Finger41
											{
												OFFSET -3.358307 -1.829651 -3.744390
												CHANNELS 3 Xrotation Yrotation Zrotation
												End Site
												{
													OFFSET 3.843273 2.955208 -2.267666
												}
											}
										}
									}
								}
							}
						}
					}
				}
			}
		}
		JOINT Tail01
		{
			OFFSET -0.000010 10.922326 -0.017508
			CHANNELS 3 Xrotation Yrotation Zrotation
			JOINT Tail02
			{
				OFFSET -0.000022 21.986111 0.000013
				CHANNELS 3 Xrotation Yrotation Zrotation
				JOINT Tail03
				{
					OFFSET -0.000022 21.986118 0.000002
					CHANNELS 3 Xrotation Yrotation Zrotation
					JOINT Tail04
					{
						OFFSET -0.000022 21.986122 0.000004
						CHANNELS 3 Xrotation Yrotation Zrotation
						JOINT Tail05
						{
							OFFSET -0.000022 21.986099 0.000010
							CHANNELS 3 Xrotation Yrotation Zrotation
							JOINT Tail06
							{
								OFFSET -0.000022 21.986099 0.000006
								CHANNELS 3 Xrotation Yrotation Zrotation
								JOINT Tail07
								{
									OFFSET -0.000022 21.986099 0.000000
									CHANNELS 3 Xrotation Yrotation Zrotation
									JOINT Tail08
									{
										OFFSET -0.000022 21.984848 0.000050
										CHANNELS 3 Xrotation Yrotation Zrotation
										JOINT Tail09
										{
											OFFSET -0.000025 21.926025 -1.606211
											CHANNELS 3 Xrotation Yrotation Zrotation
											JOINT Tail10
											{
												OFFSET -0.000027 21.750092 -3.203882
												CHANNELS 3 Xrotation Yrotation Zrotation
												End Site
												{
													OFFSET -0.000036 4.767395 21.461668
												}
											}
										}
									}
								}
							}
						}
					}
				}
			}
		}
		JOINT L_Thigh
		{
			OFFSET 24.788780 0.000021 -0.000034
			CHANNELS 3 Xrotation Yrotation Zrotation
			JOINT L_Calf
			{
				OFFSET 4.720837 4.161326 -21.049969
				CHANNELS 3 Xrotation Yrotation Zrotation
				JOINT L_Foot
				{
					OFFSET 2.154160 21.114433 -11.949743
					CHANNELS 3 Xrotation Yrotation Zrotation
					JOINT L_Toe0
					{
						OFFSET 4.557564 9.251841 -8.735286
						CHANNELS 3 Xrotation Yrotation Zrotation
						End Site
						{
							OFFSET 4.555542 -12.646044 1.018752
						}
					}
					JOINT L_Toe1
					{
						OFFSET 2.346291 5.845602 -11.687160
						CHANNELS 3 Xrotation Yrotation Zrotation
						End Site
						{
							OFFSET 5.347954 -12.298279 1.365644
						}
					}
					JOINT L_Toe2
					{
						OFFSET -0.356020 3.902458 -12.541145
						CHANNELS 3 Xrotation Yrotation Zrotation
						End Site
						{
							OFFSET 3.916235 -12.806129 1.542549
						}
					}
					JOINT L_Toe3
					{
						OFFSET -4.603447 3.183935 -12.435249
						CHANNELS 3 Xrotation Yrotation Zrotation
						End Site
						{
							OFFSET 3.810858 -12.587427 2.957583
						}
					}
					JOINT L_Toe4
					{
						OFFSET -7.144358 6.231495 -10.072764
						CHANNELS 3 Xrotation Yrotation Zrotation
						End Site
						{
							OFFSET 3.810858 -12.587425 2.957585
						}
					}
				}
			}
		}
		JOINT R_Thigh
		{
			OFFSET -24.788780 -0.000024 0.000034
			CHANNELS 3 Xrotation Yrotation Zrotation
			JOINT R_Calf
			{
				OFFSET -4.720922 4.161324 -21.049952
				CHANNELS 3 Xrotation Yrotation Zrotation
				JOINT R_Foot
				{
					OFFSET -2.154238 21.114414 -11.949730
					CHANNELS 3 Xrotation Yrotation Zrotation
					JOINT R_Toe0
					{
						OFFSET -4.557598 9.251823 -8.735270
						CHANNELS 3 Xrotation Yrotation Zrotation
						End Site
						{
							OFFSET -4.555508 -12.646051 1.018756
						}
					}
					JOINT R_Toe1
					{
						OFFSET -2.346325 5.845589 -11.687157
						CHANNELS 3 Xrotation Yrotation Zrotation
						End Site
						{
							OFFSET -5.347919 -12.298286 1.365654
						}
					}
					JOINT R_Toe2
					{
						OFFSET 0.355980 3.902462 -12.541145
						CHANNELS 3 Xrotation Yrotation Zrotation
						End Site
						{
							OFFSET -3.916199 -12.806131 1.542559
						}
					}
					JOINT R_Toe3
					{
						OFFSET 4.603411 3.183941 -12.435266
						CHANNELS 3 Xrotation Yrotation Zrotation
						End Site
						{
							OFFSET -3.810825 -12.587429 2.957591
						}
					}
					JOINT R_Toe4
					{
						OFFSET 7.144323 6.231503 -10.072779
						CHANNELS 3 Xrotation Yrotation Zrotation
						End Site
						{
							OFFSET -3.810825 -12.587433 2.957584
						}
					}
				}
			}
		}
	}
}
MOTION
Frames: 5
Frame Time: 0.033333
0.000000 0.000000 52.000000 0.000000 -0.000000 0.000044 -8.842944 -0.000088 0.000007 -3.038943 0.000011 -0.000000 7.118170 -0.000003 0.000007 9.876482 -0.000004 0.000009 2.836046 0.000000 0.000001 -6.986526 0.000003 -0.000007 4.986483 -0.000011 0.000011 17.417339 0.000015 -0.000067 -11.537028 -0.000053 0.000048 0.000010 0.000000 -0.000000 0.000000 -0.000000 -0.000000 -0.000003 0.000007 -0.000015 0.000121 -0.000077 0.000012 -0.000005 -0.000003 -0.000001 0.000011 0.000008 0.000009 0.000009 0.000000 0.000010 0.000121 0.000076 -0.000017 0.000004 -0.000001 0.000002 0.000000 -0.000004 -0.000004 0.000000 -0.000000 -0.000000 -0.000861 4.114584 11.904646 30.877704 -13.503321 -27.880573 1.662380 -0.253399 0.445252 -0.000005 -0.000004 -0.000008 -0.000004 -0.000002 -0.000005 -0.000003 0.000002 0.000001 -0.000001 -0.000002 -0.000001 -0.000001 0.000000 -0.000003 0.000000 0.000001 -0.000006 -0.000001 0.000001 0.000001 0.000000 -0.000001 0.000001 -0.000002 -0.000002 -0.000002 0.000005 0.000001 0.000005 -0.000003 0.000001 0.000004 -0.000909 -4.114891 -11.904630 0.180459 13.902523 33.282672 0.000002 0.000013 -0.000005 -3.098987 -14.348627 -6.899207 -0.000006 -0.000001 -0.000006 -0.000003 -0.000002 0.000006 -0.000000 -0.000007 0.000002 0.000003 -0.000001 0.000002 -0.000000 -0.000006 -0.000002 -0.000000 -0.000004 0.000004 0.000003 0.000003 -0.000000 0.000003 -0.000004 -0.000000 0.000003 0.000004 0.000001 -0.000000 0.000015 0.000004 2.755810 0.000018 -0.000164 6.439098 -0.134504 4.138777 -4.544903 -0.721308 4.085905 2.215207 0.260140 -5.355329 7.578120 -0.137328 -5.354397 3.839489 -0.143699 -9.537739 4.585047 -0.392111 -9.533801 7.111388 0.187048 7.064268 7.148257 0.997038 6.875901 6.192663 1.238125 6.864036 -53.375347 -11.697659 4.703829 31.842308 2.843075 6.731578 5.633937 -4.211916 -19.473902 27.466066 13.051572 7.532713 27.693118 14.473791 4.529413 30.409180 9.978625 0.363758 31.058257 7.774929 -4.425287 30.524037 4.588415 -9.917705 -49.046386 8.538911 -13.441261 16.352754 -0.986794 -3.648015 15.988822 9.277606 21.413642 27.466052 -13.051524 -7.532802 27.693118 -14.473746 -4.529499 30.409201 -9.978585 -0.363848 31.058274 -7.774896 4.425203 30.524047 -4.588369 9.917617 
0.000000 0.000000 52.000000 0.000000 -0.000000 0.000044 -8.959891 -0.000091 0.000007 -2.921996 0.000011 -0.000000 7.179211 -0.000003 0.000007 9.937526 -0.000004 0.000009 2.897089 0.000000 0.000001 -6.986526 0.000003 -0.000007 5.161896 -0.000011 0.000011 17.066503 0.000015 -0.000066 -11.537031 -0.000053 0.000048 0.000009 0.000000 -0.000000 -0.000001 0.000000 -0.000000 -0.000004 0.000007 -0.000018 0.000122 -0.000076 0.000012 -0.000003 -0.000001 -0.000001 0.000011 0.000008 0.000009 0.000007 0.000000 0.000007 0.000123 0.000076 -0.000015 0.000005 -0.000001 0.000003 -0.000001 -0.000004 -0.000002 -0.000000 0.000000 -0.000000 -0.000861 4.114583 11.904646 31.029560 -13.037737 -27.990201 0.855608 -0.132075 0.228315 -0.000007 -0.000002 -0.000009 -0.000002 -0.000001 -0.000003 -0.000004 0.000002 0.000003 0.000003 0.000000 0.000001 0.000004 0.000002 -0.000000 -0.000001 0.000000 -0.000003 0.000003 0.000002 0.000001 0.000004 0.000001 -0.000003 -0.000003 -0.000002 0.000003 0.000006 0.000002 0.000003 -0.000003 -0.000003 0.000011 -0.000909 -4.114892 -11.904630 1.132845 13.834549 33.058840 -1.576866 -0.252483 0.415884 -3.098990 -14.348626 -6.899212 -0.000004 -0.000002 -0.000007 -0.000003 0.000002 0.000005 0.000001 -0.000006 0.000002 0.000006 -0.000002 0.000001 0.000003 -0.000006 -0.000006 -0.000000 -0.000005 0.000003 0.000005 0.000006 0.000006 0.000001 -0.000003 0.000001 -0.000003 0.000006 -0.000001 -0.000002 0.000012 -0.000001 2.973482 0.000018 -0.000164 6.556254 -0.127567 4.137756 -4.575585 -0.718433 4.085276 2.064211 0.269211 -5.351603 7.330944 -0.126512 -5.350365 3.550521 -0.114066 -9.536529 4.343584 -0.364530 -9.541138 7.060000 0.168919 7.056125 7.451972 0.997764 6.859846 6.924729 1.252012 6.828380 -53.444704 -11.670345 4.668113 31.393346 2.777684 6.649488 6.260857 -4.239814 -19.335856 27.466067 13.051569 7.532712 27.693118 14.473791 4.529413 30.409180 9.978625 0.363758 31.058257 7.774928 -4.425290 30.524040 4.588412 -9.917705 -48.712458 8.174466 -13.896282 16.896901 -1.037379 -3.763930 15.073133 9.790790 21.742307 27.466057 -13.051528 -7.532800 27.693118 -14.473750 -4.529499 30.409208 -9.978585 -0.363848 31.058281 -7.774898 4.425202 30.524051 -4.588373 9.917614 
0.000000 0.000000 52.000000 0.000000 -0.000000 0.000044 -9.086865 -0.000093 -0.000000 -2.795052 0.000012 -0.000000 7.244755 -0.000003 0.000007 10.003072 -0.000004 0.000008 2.962633 -0.000000 0.000001 -6.986526 0.000003 -0.000007 5.352319 -0.000012 0.000010 16.685720 0.000016 -0.000066 -11.537031 -0.000053 0.000048 0.000010 0.000000 -0.000000 0.000000 0.000000 -0.000000 -0.000004 0.000007 -0.000015 0.000123 -0.000077 0.000012 -0.000002 -0.000003 0.000000 0.000015 0.000008 0.000010 0.000008 0.000000 0.000010 0.000123 0.000076 -0.000015 0.000004 -0.000001 0.000003 -0.000001 -0.000002 -0.000002 -0.000000 -0.000000 0.000000 -0.000859 4.114584 11.904646 31.077456 -12.460462 -28.182271 0.058654 -0.009173 0.015594 -0.000010 -0.000001 -0.000005 -0.000003 0.000000 -0.000004 0.000003 0.000003 0.000001 0.000003 0.000000 -0.000003 0.000003 0.000001 -0.000001 -0.000001 -0.000001 -0.000008 -0.000002 0.000000 0.000004 0.000003 0.000001 -0.000004 -0.000008 -0.000007 -0.000005 0.000002 0.000005 -0.000004 -0.000003 0.000003 0.000007 -0.000908 -4.114891 -11.904629 2.136373 13.713587 32.840612 -3.262332 -0.535254 0.853077 -3.098993 -14.348626 -6.899213 -0.000008 -0.000001 -0.000008 -0.000001 0.000001 0.000001 0.000002 -0.000005 0.000001 0.000005 -0.000001 0.000001 0.000007 -0.000006 -0.000006 -0.000001 -0.000006 0.000005 0.000006 0.000007 0.000006 0.000004 -0.000003 0.000001 0.000002 0.000005 -0.000003 -0.000000 0.000012 0.000001 3.139988 0.000019 -0.000164 6.730067 -0.121249 4.136715 -4.536030 -0.713873 4.084558 1.930404 0.274650 -5.348760 7.072061 -0.117559 -5.346278 3.240050 -0.084553 -9.533634 4.065345 -0.335933 -9.545711 6.956362 0.139772 7.050631 7.681562 0.991100 6.847216 7.600773 1.259560 6.795536 -53.505117 -11.766536 4.446501 30.745007 2.684411 6.530077 7.138933 -4.048620 -19.084028 27.466071 13.051569 7.532714 27.693120 14.473789 4.529415 30.409184 9.978625 0.363758 31.058253 7.774928 -4.425286 30.524037 4.588413 -9.917703 -48.361387 7.751012 -14.416702 17.459765 -1.090868 -3.883344 14.100153 10.378648 22.111076 27.466055 -13.051525 -7.532800 27.693122 -14.473746 -4.529498 30.409204 -9.978584 -0.363848 31.058277 -7.774897 4.425201 30.524047 -4.588371 9.917617 
0.000000 0.000000 52.000000 0.000000 -0.000000 0.000044 -9.222156 -0.000094 -0.000028 -2.659731 0.000012 -0.000000 7.313831 -0.000003 0.000007 10.072150 -0.000004 0.000008 3.031712 -0.000000 0.000001 -6.986526 0.000003 -0.000007 5.555254 -0.000012 0.000010 16.280041 0.000016 -0.000065 -11.537033 -0.000053 0.000048 0.000009 0.000000 -0.000000 -0.000002 0.000000 -0.000000 -0.000004 0.000007 -0.000017 0.000123 -0.000078 0.000010 -0.000000 -0.000003 -0.000003 0.000012 0.000005 0.000009 0.000008 0.000000 0.000009 0.000123 0.000077 -0.000017 0.000006 0.000000 0.000005 0.000003 0.000001 -0.000002 0.000000 -0.000000 -0.000000 -0.000861 4.114583 11.904644 31.028959 -11.809060 -28.437061 -0.708389 0.111971 -0.187627 -0.000005 -0.000003 -0.000011 -0.000002 -0.000002 -0.000008 0.000000 0.000003 0.000002 0.000001 -0.000002 -0.000001 0.000002 0.000003 -0.000000 0.000000 0.000000 -0.000008 -0.000001 0.000002 0.000001 0.000005 -0.000001 0.000001 0.000002 -0.000002 0.000003 0.000008 0.000007 -0.000006 -0.000003 -0.000001 0.000009 -0.000909 -4.114891 -11.904628 3.164717 13.559613 32.628422 -5.009669 -0.842242 1.297925 -3.098989 -14.348627 -6.899209 -0.000003 -0.000001 -0.000004 0.000001 -0.000001 0.000000 0.000001 -0.000008 0.000004 0.000004 -0.000002 0.000001 0.000003 -0.000007 -0.000003 -0.000003 -0.000003 0.000003 0.000005 0.000004 0.000003 0.000002 -0.000003 -0.000004 0.000002 0.000009 -0.000004 -0.000003 0.000013 -0.000004 3.263627 0.000019 -0.000164 6.920894 -0.115258 4.135674 -4.431747 -0.708018 4.083765 1.836958 0.275737 -5.346881 6.810280 -0.111012 -5.342645 2.893631 -0.056340 -9.529277 3.741728 -0.307312 -9.547401 6.797161 0.098531 7.048803 7.839813 0.975631 6.838195 8.215247 1.259601 6.766463 -53.556849 -11.968933 4.067619 29.940940 2.570643 6.380576 8.205268 -3.665969 -18.742444 27.466066 13.051569 7.532711 27.693118 14.473792 4.529411 30.409184 9.978625 0.363756 31.058257 7.774930 -4.425290 30.524037 4.588414 -9.917705 -48.000046 7.292240 -14.974047 18.033474 -1.146601 -4.004533 13.090352 11.007331 22.506503 27.466054 -13.051525 -7.532800 27.693122 -14.473746 -4.529494 30.409204 -9.978584 -0.363848 31.058274 -7.774897 4.425205 30.524047 -4.588372 9.917617 
0.000000 0.000000 52.000000 0.000000 -0.000000 0.000044 -9.363718 -0.000095 0.000027 -2.518160 0.000012 -0.000000 7.385479 -0.000003 0.000006 10.143802 -0.000004 0.000008 3.103362 -0.000000 0.000001 -6.986525 0.000003 -0.000007 5.767589 -0.000012 0.000009 15.855657 0.000016 -0.000064 -11.537026 -0.000053 0.000048 0.000011 0.000000 -0.000000 0.000000 0.000000 -0.000000 -0.000005 0.000007 -0.000015 0.000121 -0.000077 0.000010 0.000001 -0.000001 0.000000 0.000009 0.000007 0.000009 0.000008 0.000000 0.000010 0.000119 0.000075 -0.000020 0.000003 -0.000001 0.000002 0.000000 -0.000002 -0.000007 -0.000000 -0.000000 -0.000000 -0.000858 4.114583 11.904646 30.893796 -11.136858 -28.726007 -1.425508 0.227743 -0.376233 -0.000009 -0.000001 -0.000006 -0.000009 -0.000001 -0.000003 0.000003 0.000002 0.000001 -0.000004 -0.000001 -0.000000 0.000006 0.000001 -0.000000 -0.000001 0.000001 -0.000005 0.000000 -0.000000 -0.000001 -0.000000 0.000001 0.000000 -0.000003 -0.000001 -0.000002 -0.000000 0.000001 0.000003 -0.000005 -0.000001 0.000009 -0.000908 -4.114891 -11.904630 4.184443 13.402553 32.421863 -6.758281 -1.163301 1.734125 -3.098991 -14.348629 -6.899213 -0.000003 0.000000 -0.000004 -0.000003 0.000003 0.000004 0.000003 -0.000006 0.000001 0.000004 -0.000003 0.000001 0.000003 -0.000004 -0.000004 -0.000003 -0.000004 0.000003 0.000006 0.000004 0.000003 0.000004 -0.000003 -0.000001 -0.000000 0.000009 -0.000004 -0.000001 0.000013 0.000002 3.354334 0.000019 -0.000164 7.113023 -0.109306 4.134668 -4.277440 -0.701260 4.082903 1.807073 0.271756 -5.346027 6.564595 -0.107413 -5.339424 2.504658 -0.030607 -9.523647 3.363383 -0.279655 -9.546080 6.571360 0.044489 7.050752 7.932860 0.949934 6.832963 8.763732 1.250964 6.742129 -53.597785 -12.256528 3.570375 29.038259 2.445473 6.210923 9.377349 -3.129887 -18.340829 27.466067 13.051574 7.532713 27.693116 14.473792 4.529413 30.409187 9.978626 0.363756 31.058260 7.774928 -4.425289 30.524037 4.588413 -9.917708 -47.635689 6.830008 -15.531767 18.607606 -1.203604 -4.125271 12.071529 11.633676 22.909061 27.466057 -13.051528 -7.532800 27.693116 -14.473748 -4.529496 30.409204 -9.978585 -0.363846 31.058274 -7.774899 4.425203 30.524051 -4.588374 9.917618 
